<svg width="772" height="295" viewBox="0 0 772 295" fill="none" xmlns="http://www.w3.org/2000/svg">
    <path d="M102.753 31.9133L30.0766 232H0.372656L84.0562 12.4625H103.205L102.753 31.9133ZM163.669 232L90.8414 31.9133L90.3891 12.4625H109.538L193.523 232H163.669ZM159.899 150.729V174.552H36.5602V150.729H159.899ZM246.598 100.217V294.725H218.553V68.8547H244.186L246.598 100.217ZM356.518 149.07V152.237C356.518 164.098 355.111 175.105 352.296 185.258C349.481 195.31 345.36 204.055 339.932 211.494C334.604 218.932 328.02 224.712 320.18 228.834C312.339 232.955 303.342 235.016 293.19 235.016C282.836 235.016 273.689 233.307 265.748 229.889C257.806 226.471 251.072 221.496 245.543 214.962C240.014 208.428 235.591 200.587 232.274 191.44C229.058 182.292 226.846 171.989 225.64 160.53V143.642C226.846 131.58 229.108 120.774 232.425 111.224C235.742 101.675 240.115 93.5326 245.543 86.7977C251.072 79.9622 257.756 74.7854 265.597 71.2672C273.437 67.6484 282.484 65.8391 292.737 65.8391C302.991 65.8391 312.088 67.8495 320.029 71.8703C327.97 75.7906 334.655 81.4198 340.083 88.7578C345.511 96.0958 349.582 104.891 352.296 115.145C355.111 125.297 356.518 136.606 356.518 149.07ZM328.473 152.237V149.07C328.473 140.928 327.618 133.289 325.909 126.152C324.201 118.914 321.537 112.581 317.918 107.153C314.4 101.624 309.876 97.3021 304.348 94.1859C298.819 90.9693 292.235 89.3609 284.595 89.3609C277.559 89.3609 271.427 90.5672 266.2 92.9797C261.073 95.3922 256.701 98.6591 253.082 102.78C249.463 106.801 246.498 111.425 244.186 116.652C241.974 121.779 240.316 127.107 239.21 132.635V171.688C241.221 178.724 244.035 185.358 247.654 191.591C251.273 197.722 256.098 202.698 262.129 206.518C268.16 210.237 275.749 212.097 284.897 212.097C292.436 212.097 298.92 210.539 304.348 207.423C309.876 204.206 314.4 199.833 317.918 194.305C321.537 188.776 324.201 182.443 325.909 175.306C327.618 168.069 328.473 160.379 328.473 152.237ZM419.997 100.217V294.725H391.952V68.8547H417.584L419.997 100.217ZM529.916 149.07V152.237C529.916 164.098 528.509 175.105 525.695 185.258C522.88 195.31 518.759 204.055 513.33 211.494C508.003 218.932 501.419 224.712 493.578 228.834C485.737 232.955 476.741 235.016 466.588 235.016C456.235 235.016 447.087 233.307 439.146 229.889C431.205 226.471 424.47 221.496 418.941 214.962C413.413 208.428 408.99 200.587 405.673 191.44C402.456 182.292 400.245 171.989 399.038 160.53V143.642C400.245 131.58 402.506 120.774 405.823 111.224C409.141 101.675 413.513 93.5326 418.941 86.7977C424.47 79.9622 431.155 74.7854 438.995 71.2672C446.836 67.6484 455.883 65.8391 466.136 65.8391C476.389 65.8391 485.486 67.8495 493.427 71.8703C501.368 75.7906 508.053 81.4198 513.481 88.7578C518.909 96.0958 522.98 104.891 525.695 115.145C528.509 125.297 529.916 136.606 529.916 149.07ZM501.871 152.237V149.07C501.871 140.928 501.017 133.289 499.308 126.152C497.599 118.914 494.935 112.581 491.316 107.153C487.798 101.624 483.275 97.3021 477.746 94.1859C472.217 90.9693 465.633 89.3609 457.994 89.3609C450.957 89.3609 444.825 90.5672 439.598 92.9797C434.472 95.3922 430.099 98.6591 426.48 102.78C422.862 106.801 419.896 111.425 417.584 116.652C415.373 121.779 413.714 127.107 412.609 132.635V171.688C414.619 178.724 417.434 185.358 421.052 191.591C424.671 197.722 429.496 202.698 435.527 206.518C441.559 210.237 449.148 212.097 458.295 212.097C465.834 212.097 472.318 210.539 477.746 207.423C483.275 204.206 487.798 199.833 491.316 194.305C494.935 188.776 497.599 182.443 499.308 175.306C501.017 168.069 501.871 160.379 501.871 152.237ZM595.808 0.400009V232H567.762V0.400009H595.808ZM708.291 235.016C696.932 235.016 686.628 233.106 677.38 229.286C668.233 225.366 660.342 219.887 653.708 212.851C647.174 205.814 642.148 197.471 638.63 187.821C635.111 178.171 633.352 167.616 633.352 156.157V149.824C633.352 136.555 635.312 124.744 639.233 114.391C643.153 103.936 648.481 95.0906 655.216 87.8531C661.95 80.6156 669.59 75.1372 678.134 71.418C686.679 67.6987 695.524 65.8391 704.672 65.8391C716.332 65.8391 726.384 67.8495 734.828 71.8703C743.372 75.8912 750.359 81.5203 755.787 88.7578C761.215 95.8948 765.236 104.339 767.849 114.089C770.463 123.739 771.769 134.294 771.769 145.753V158.268H649.938V135.5H743.875V133.389C743.473 126.152 741.965 119.115 739.352 112.28C736.839 105.444 732.818 99.8151 727.289 95.3922C721.76 90.9693 714.221 88.7578 704.672 88.7578C698.339 88.7578 692.509 90.1148 687.181 92.8289C681.854 95.4425 677.28 99.3628 673.46 104.59C669.64 109.817 666.675 116.2 664.564 123.739C662.453 131.278 661.398 139.973 661.398 149.824V156.157C661.398 163.897 662.453 171.185 664.564 178.02C666.775 184.755 669.942 190.686 674.063 195.813C678.285 200.939 683.361 204.96 689.292 207.875C695.323 210.79 702.159 212.248 709.798 212.248C719.649 212.248 727.993 210.237 734.828 206.216C741.664 202.196 747.644 196.818 752.771 190.083L769.659 203.502C766.14 208.83 761.667 213.906 756.239 218.731C750.811 223.556 744.126 227.477 736.185 230.492C728.344 233.508 719.046 235.016 708.291 235.016Z" fill="white"/>
</svg>
