<svg width="565" height="226" viewBox="0 0 565 226" fill="none" xmlns="http://www.w3.org/2000/svg">
    <path d="M0.871874 112.89C0.871874 77.7076 9.56693 50.1649 26.957 30.2617C44.4477 10.2581 69.5276 0.256259 102.197 0.256259C121.296 0.256259 137.078 3.52319 149.542 10.057C162.007 16.4904 170.953 25.3362 176.381 36.5945C179.196 42.4247 178.743 46.4456 175.024 48.657L163.112 55.593C159.092 57.905 155.523 55.9951 152.407 49.8633C149.09 43.5305 143.662 37.5997 136.123 32.0711C128.584 26.5425 117.778 23.7781 103.705 23.7781C78.5745 23.7781 60.2797 31.6188 48.8203 47.3C37.4615 62.8807 31.782 84.744 31.782 112.89C31.782 141.036 37.4615 162.949 48.8203 178.63C60.2797 194.211 78.5745 202.002 103.705 202.002C118.18 202.002 129.74 198.684 138.384 192.05C147.13 185.416 153.462 178.48 157.383 171.242C160.499 165.412 164.118 163.653 168.239 165.965L180.754 173.052C184.373 175.163 184.674 179.183 181.659 185.114C175.728 196.674 166.078 206.324 152.709 214.064C139.339 221.704 122.502 225.523 102.197 225.523C69.5276 225.523 44.4477 215.572 26.957 195.669C9.56693 175.665 0.871874 148.072 0.871874 112.89ZM223.425 204.716C218.097 199.891 216.69 195.669 219.203 192.05L227.044 180.741C229.758 176.821 234.13 177.123 240.162 181.646C248.103 187.577 256.346 192.452 264.89 196.272C273.535 200.092 283.989 202.002 296.252 202.002C305.299 202.002 312.939 200.645 319.171 197.93C325.403 195.216 330.379 191.346 334.098 186.32C337.918 181.194 339.828 175.012 339.828 167.774C339.828 162.547 339.024 157.722 337.416 153.299C335.908 148.776 333.445 145.006 330.027 141.991C326.61 138.975 323.041 136.613 319.322 134.904C313.19 132.089 303.992 128.822 291.729 125.103C279.566 121.384 268.911 117.363 259.763 113.041C250.716 108.718 243.479 103.491 238.051 97.3594C232.723 91.2276 229.155 84.9451 227.345 78.5117C225.636 71.9779 224.782 64.5393 224.782 56.1961C224.782 43.43 228.501 32.4229 235.94 23.175C243.378 13.9271 252.476 7.79532 263.231 4.7797C274.087 1.76407 285.095 0.256259 296.252 0.256259C309.018 0.256259 320.126 1.91485 329.575 5.23204C339.024 8.54923 347.468 12.8716 354.906 18.1992C360.133 21.9185 361.34 25.8388 358.525 29.9602L350.835 40.9672C348.523 44.2844 344 43.5807 337.265 38.8563C332.138 35.2375 325.856 31.8701 318.417 28.7539C311.079 25.5372 303.791 23.9289 296.554 23.9289C287.306 23.9289 279.616 25.0346 273.484 27.2461C267.353 29.357 262.528 32.9758 259.009 38.1024C255.491 43.2289 253.732 49.1596 253.732 55.8945C253.732 60.1164 254.134 64.0367 254.938 67.6555C255.742 71.1737 257.803 74.7925 261.12 78.5117C264.437 82.231 268.458 85.0958 273.183 87.1063C279.516 89.8203 289.316 93.037 302.585 96.7563C315.954 100.375 327.615 104.848 337.566 110.176C346.814 115.101 353.449 120.278 357.47 125.706C361.591 131.034 364.757 136.864 366.969 143.197C369.281 149.429 370.437 156.466 370.437 164.306C370.437 178.58 366.768 190.492 359.43 200.041C352.092 209.591 343.397 216.225 333.345 219.945C323.292 223.664 310.677 225.523 295.498 225.523C277.304 225.523 262.226 223.412 250.264 219.191C238.302 214.969 229.356 210.144 223.425 204.716ZM396.673 30.7141C391.144 30.7141 388.38 28.4524 388.38 23.9289V11.5649C388.38 7.04141 391.144 4.7797 396.673 4.7797H556.199C561.728 4.7797 564.492 7.04141 564.492 11.5649V23.9289C564.492 28.4524 561.728 30.7141 556.199 30.7141H490.911V212.707C490.911 218.236 488.398 221 483.372 221H469.5C464.474 221 461.961 218.236 461.961 212.707V30.7141H396.673Z" fill="white"/>
</svg>
