<svg width="982" height="310" viewBox="0 0 982 310" fill="none" xmlns="http://www.w3.org/2000/svg">
    <path d="M106.395 119.502H183.444V226.405C171.884 230.326 159.972 233.241 147.709 235.151C135.546 237.061 121.925 238.016 106.847 238.016C83.9281 238.016 64.5779 233.442 48.7961 224.295C33.1148 215.147 21.2031 202.13 13.0609 185.242C4.91875 168.254 0.847656 148.1 0.847656 124.779C0.847656 101.961 5.32083 82.0576 14.2672 65.0695C23.3141 48.0815 36.3315 34.9133 53.3195 25.5649C70.4081 16.1159 90.9143 11.3914 114.838 11.3914C127.102 11.3914 138.712 12.5474 149.669 14.8594C160.726 17.0708 170.979 20.2372 180.428 24.3586L170.627 46.6742C162.485 43.156 153.489 40.1404 143.637 37.6274C133.887 35.1143 123.785 33.8578 113.33 33.8578C95.3372 33.8578 79.9073 37.5771 67.0406 45.0156C54.2745 52.4542 44.4737 62.9586 37.6383 76.5289C30.9034 90.0992 27.5359 106.183 27.5359 124.779C27.5359 143.174 30.5013 159.207 36.432 172.878C42.3628 186.448 51.6107 197.003 64.1758 204.542C76.7409 212.081 92.9247 215.851 112.727 215.851C122.679 215.851 131.223 215.298 138.36 214.192C145.497 212.986 151.981 211.579 157.811 209.97V142.42H106.395V119.502ZM375.539 152.07C375.539 165.641 373.78 177.753 370.262 188.409C366.743 199.064 361.667 208.06 355.033 215.398C348.398 222.736 340.357 228.366 330.908 232.286C321.559 236.106 310.954 238.016 299.093 238.016C288.036 238.016 277.883 236.106 268.635 232.286C259.488 228.366 251.547 222.736 244.812 215.398C238.177 208.06 233.001 199.064 229.281 188.409C225.662 177.753 223.853 165.641 223.853 152.07C223.853 133.977 226.919 118.597 233.051 105.931C239.183 93.1651 247.928 83.4648 259.287 76.8305C270.746 70.0956 284.367 66.7281 300.148 66.7281C315.227 66.7281 328.395 70.0956 339.653 76.8305C351.012 83.5654 359.808 93.3159 366.04 106.082C372.373 118.748 375.539 134.077 375.539 152.07ZM249.787 152.07C249.787 165.339 251.547 176.849 255.065 186.599C258.583 196.35 264.011 203.889 271.349 209.216C278.687 214.544 288.136 217.208 299.696 217.208C311.155 217.208 320.554 214.544 327.892 209.216C335.331 203.889 340.809 196.35 344.327 186.599C347.846 176.849 349.605 165.339 349.605 152.07C349.605 138.902 347.846 127.543 344.327 117.994C340.809 108.344 335.381 100.905 328.043 95.6781C320.705 90.451 311.206 87.8375 299.545 87.8375C282.356 87.8375 269.741 93.5169 261.699 104.876C253.758 116.235 249.787 131.966 249.787 152.07ZM561.302 152.07C561.302 165.641 559.542 177.753 556.024 188.409C552.506 199.064 547.43 208.06 540.795 215.398C534.161 222.736 526.119 228.366 516.67 232.286C507.322 236.106 496.717 238.016 484.855 238.016C473.798 238.016 463.646 236.106 454.398 232.286C445.25 228.366 437.309 222.736 430.574 215.398C423.94 208.06 418.763 199.064 415.044 188.409C411.425 177.753 409.616 165.641 409.616 152.07C409.616 133.977 412.681 118.597 418.813 105.931C424.945 93.1651 433.69 83.4648 445.049 76.8305C456.509 70.0956 470.129 66.7281 485.911 66.7281C500.989 66.7281 514.157 70.0956 525.416 76.8305C536.774 83.5654 545.57 93.3159 551.802 106.082C558.135 118.748 561.302 134.077 561.302 152.07ZM435.55 152.07C435.55 165.339 437.309 176.849 440.827 186.599C444.346 196.35 449.774 203.889 457.112 209.216C464.45 214.544 473.899 217.208 485.459 217.208C496.918 217.208 506.317 214.544 513.655 209.216C521.093 203.889 526.572 196.35 530.09 186.599C533.608 176.849 535.367 165.339 535.367 152.07C535.367 138.902 533.608 127.543 530.09 117.994C526.572 108.344 521.143 100.905 513.805 95.6781C506.467 90.451 496.968 87.8375 485.308 87.8375C468.119 87.8375 455.503 93.5169 447.462 104.876C439.521 116.235 435.55 131.966 435.55 152.07ZM650.715 309.184C629.002 309.184 612.266 305.113 600.505 296.971C588.744 288.929 582.863 277.621 582.863 263.045C582.863 252.692 586.13 243.846 592.664 236.508C599.298 229.17 608.446 224.295 620.106 221.882C615.784 219.872 612.065 216.856 608.948 212.835C605.933 208.814 604.425 204.19 604.425 198.963C604.425 192.932 606.084 187.655 609.401 183.131C612.818 178.507 617.995 174.084 624.931 169.863C616.286 166.344 609.25 160.414 603.822 152.07C598.494 143.627 595.83 133.826 595.83 122.668C595.83 110.807 598.293 100.704 603.219 92.3609C608.144 83.9172 615.281 77.4839 624.63 73.0609C633.978 68.638 645.287 66.4266 658.555 66.4266C661.471 66.4266 664.386 66.5774 667.301 66.8789C670.316 67.08 673.181 67.4318 675.895 67.9344C678.609 68.3365 680.972 68.8391 682.982 69.4422H739.676V85.5758L709.218 89.3453C712.234 93.2656 714.747 97.9901 716.757 103.519C718.767 109.047 719.773 115.179 719.773 121.914C719.773 138.399 714.194 151.517 703.036 161.268C691.878 170.918 676.549 175.743 657.048 175.743C652.424 175.743 647.699 175.341 642.874 174.537C637.949 177.251 634.179 180.266 631.566 183.584C629.053 186.901 627.796 190.721 627.796 195.043C627.796 198.26 628.751 200.823 630.661 202.733C632.671 204.643 635.536 206.05 639.255 206.955C642.975 207.759 647.448 208.161 652.675 208.161H681.776C699.769 208.161 713.54 211.93 723.09 219.47C732.74 227.009 737.565 238.016 737.565 252.491C737.565 270.785 730.126 284.808 715.249 294.559C700.372 304.309 678.861 309.184 650.715 309.184ZM651.469 289.583C665.14 289.583 676.448 288.176 685.394 285.361C694.441 282.647 701.176 278.676 705.599 273.449C710.123 268.323 712.384 262.191 712.384 255.054C712.384 248.42 710.877 243.393 707.861 239.976C704.845 236.659 700.422 234.447 694.592 233.341C688.762 232.135 681.625 231.532 673.181 231.532H644.533C637.094 231.532 630.611 232.688 625.082 235C619.553 237.312 615.281 240.73 612.266 245.253C609.35 249.777 607.893 255.406 607.893 262.141C607.893 271.087 611.662 277.872 619.202 282.496C626.741 287.221 637.496 289.583 651.469 289.583ZM657.952 157.498C669.914 157.498 678.911 154.483 684.942 148.452C690.973 142.42 693.989 133.625 693.989 122.065C693.989 109.701 690.923 100.453 684.791 94.3211C678.66 88.0888 669.613 84.9727 657.651 84.9727C646.191 84.9727 637.346 88.1893 631.113 94.6227C624.981 100.955 621.916 110.254 621.916 122.517C621.916 133.776 625.032 142.42 631.264 148.452C637.496 154.483 646.392 157.498 657.952 157.498ZM797.425 235H772.245V0.384384H797.425V235ZM913.979 66.7281C928.052 66.7281 940.114 69.8443 950.166 76.0766C960.218 82.3089 967.908 91.0542 973.236 102.313C978.563 113.47 981.227 126.538 981.227 141.516V157.046H867.086C867.387 176.447 872.212 191.223 881.561 201.376C890.909 211.528 904.078 216.605 921.066 216.605C931.52 216.605 940.768 215.65 948.809 213.74C956.851 211.83 965.194 209.015 973.839 205.296V227.31C965.496 231.029 957.203 233.743 948.96 235.452C940.818 237.161 931.168 238.016 920.01 238.016C904.128 238.016 890.256 234.799 878.394 228.366C866.634 221.832 857.486 212.282 850.952 199.717C844.418 187.152 841.152 171.772 841.152 153.578C841.152 135.786 844.117 120.406 850.048 107.439C856.079 94.3714 864.523 84.3193 875.379 77.2828C886.336 70.2464 899.202 66.7281 913.979 66.7281ZM913.677 87.2344C900.308 87.2344 889.653 91.607 881.712 100.352C873.771 109.098 869.046 121.311 867.538 136.992H954.991C954.891 127.141 953.333 118.496 950.317 111.058C947.402 103.519 942.929 97.6885 936.898 93.5672C930.866 89.3453 923.126 87.2344 913.677 87.2344Z" fill="white"/>
</svg>
