<svg width="596" height="225" viewBox="0 0 596 225" fill="none" xmlns="http://www.w3.org/2000/svg">
    <path d="M168.707 61.2464C168.707 79.3627 162.634 93.9792 150.488 105.096C138.136 116.213 121.975 121.771 102.006 121.771H48.2752V190.634C48.2752 198.045 50.0251 203.191 53.5248 206.074C58.2597 208.956 66.5973 210.397 78.5376 210.397V220.278H0.1024V210.397C10.8075 210.397 18.5275 208.956 23.2624 206.074C26.7621 203.191 28.512 198.045 28.512 190.634V33.1456C28.512 30.4693 28.1003 28.4107 27.2768 26.9696C26.2475 24.2933 24.9093 22.1317 23.2624 20.4848C19.3509 17.1909 11.6309 15.544 0.1024 15.544V5.04479H104.168C122.284 5.04479 137.518 9.9856 149.87 19.8672C162.428 29.9547 168.707 43.7477 168.707 61.2464ZM147.4 61.2464C147.4 47.6592 142.562 36.6453 132.886 28.2048C123.211 20.3819 111.682 16.4704 98.3008 16.4704H77.92C76.2731 16.4704 74.5232 16.5733 72.6704 16.7792C71.0235 16.7792 69.3765 16.7792 67.7296 16.7792C63.2005 16.7792 59.1861 17.2939 55.6864 18.3232C52.8043 19.3525 50.8485 21.1024 49.8192 23.5728C48.7899 25.8373 48.2752 28.9253 48.2752 32.8368V109.728H97.992C105.609 109.728 112.403 108.596 118.373 106.331C124.549 103.861 129.798 100.567 134.122 96.4496C142.974 87.5973 147.4 75.8629 147.4 61.2464ZM329.809 224.602C323.633 209.162 317.354 193.619 310.972 177.973C304.796 162.327 298.62 146.681 292.444 131.035C286.474 146.681 280.504 162.327 274.534 177.973C268.564 193.619 262.594 209.162 256.624 224.602H249.83C241.595 203.397 233.361 182.502 225.126 161.915C217.097 141.123 208.965 120.124 200.731 98.92C199.29 94.3909 197.231 91.4059 194.555 89.9648C191.055 88.112 185.908 87.1856 179.115 87.1856V77.304H240.257V87.1856C232.022 87.1856 226.464 87.7003 223.582 88.7296C220.906 89.5531 219.568 90.7883 219.568 92.4352C219.568 93.2587 219.876 94.288 220.494 95.5232C221.523 97.5819 222.347 99.6405 222.964 101.699C223.788 103.552 224.714 105.508 225.744 107.566C231.096 121.359 236.346 135.05 241.492 148.637C246.639 162.018 251.786 175.605 256.932 189.398C261.873 176.429 266.711 163.871 271.446 151.725C276.181 139.373 281.019 126.712 285.96 113.742C284.93 111.478 283.901 109.213 282.872 106.949C282.048 104.684 281.122 102.42 280.092 100.155C278.034 94.3909 275.666 90.7883 272.99 89.3472C270.725 88.112 266.402 87.4944 260.02 87.4944V77.304H320.236V87.1856C309.325 87.1856 302.429 88.3179 299.547 90.5824C298.517 91.6117 298.003 92.744 298.003 93.9792C298.003 94.1851 298.209 95.1115 298.62 96.7584L336.603 191.251C342.161 175.605 347.617 159.959 352.969 144.314C358.528 128.668 364.086 113.022 369.644 97.376C370.056 95.7291 370.262 94.6997 370.262 94.288C370.262 93.0528 369.85 91.9205 369.027 90.8912C366.762 88.4208 360.586 87.1856 350.499 87.1856V77.304H403.921V87.1856C395.686 87.1856 390.025 88.112 386.937 89.9648C384.673 91.4059 382.717 94.1851 381.07 98.3024C373.865 119.507 366.556 140.608 359.145 161.606C351.94 182.399 344.734 203.397 337.529 224.602H329.809ZM586.171 156.666C587.612 157.283 589.053 158.004 590.494 158.827C592.141 159.651 593.685 160.371 595.126 160.989C587.303 181.781 576.495 197.221 562.702 207.309C548.086 219.043 530.999 224.91 511.441 224.91C497.237 224.91 484.37 222.131 472.841 216.573C461.313 211.014 451.225 202.883 442.579 192.178C426.727 170.973 418.801 144.725 418.801 113.434C418.801 81.5243 426.727 54.8645 442.579 33.4544C459.254 11.4267 480.664 0.412799 506.809 0.412799C523.279 0.412799 537.381 3.5008 549.115 9.67679C551.997 8.44159 554.982 7.30933 558.07 6.28C561.158 5.0448 564.143 3.91254 567.025 2.8832C570.937 12.3531 574.745 21.72 578.451 30.984C582.362 40.248 586.274 49.6149 590.185 59.0848C588.744 59.7024 587.406 60.4229 586.171 61.2464C584.936 61.864 583.598 62.4816 582.157 63.0992C573.716 49.3061 564.452 38.1893 554.365 29.7488C543.454 20.8965 531.925 15.7499 519.779 14.3088C517.72 13.8971 515.662 13.6912 513.603 13.6912C511.544 13.6912 509.383 13.6912 507.118 13.6912C493.325 14.3088 480.973 20.0731 470.062 30.984C466.357 34.6896 462.96 38.704 459.872 43.0272C447.108 61.3493 440.726 84.2005 440.726 111.581C440.726 138.343 447.52 160.68 461.107 178.59C462.96 180.855 464.813 183.017 466.665 185.075C468.724 187.134 470.68 188.987 472.533 190.634C478.914 197.015 485.811 201.647 493.222 204.53C500.839 207.412 508.971 208.853 517.617 208.853C530.999 208.853 543.762 204.015 555.909 194.339C568.878 183.84 578.966 171.282 586.171 156.666Z" fill="white"/>
</svg>
